<svg xmlns="http://www.w3.org/2000/svg" viewBox="-207 348 196 98" enable-background="new -207 348 196 98"><g transform="translate(-8 -5)"><defs><filter id="a" filterUnits="userSpaceOnUse" x="-198.9" y="353" width="195.8" height="97.8"><feColorMatrix values="1 0 0 0 0 0 1 0 0 0 0 0 1 0 0 0 0 0 1 0"/></filter></defs><mask maskUnits="userSpaceOnUse" x="-198.9" y="353" width="195.8" height="97.8" id="b"><path fill="#FFF" d="M-207 348H6v115h-213V348z" filter="url(#a)"/></mask><g mask="url(#b)"><path fill="#FFC220" d="M-132.4 433.2l-47.3-33.1c-4.9-2.9-12.3.6-16.5 7.8-4.2 7.2-3.4 15.3 1.5 18.2l52.3 24.4c3.3 1.2 7.7-1.1 10.3-5.6 2.6-4.4 2.4-9.4-.3-11.7zm62.5 11.7c2.6 4.4 7 6.8 10.3 5.6l52.3-24.4c4.9-2.8 5.6-10.9 1.5-18.2-4.2-7.2-11.6-10.7-16.5-7.8l-47.3 33.1c-2.7 2.3-2.9 7.3-.3 11.7zM-91 420.8l5.1-57.5c0-5.7-6.7-10.4-15-10.4-8.4 0-15 4.7-15 10.4l5.1 57.5c.6 3.5 4.8 6.1 9.9 6.1 5 .1 9.3-2.6 9.9-6.1z"/></g></g></svg>